<svg xmlns="http://www.w3.org/2000/svg" viewBox="0 0 460.4 428.5">
  <defs>
    <style>
      .cls-1 {
        opacity: 0.3;
      }

      .cls-2 {
        fill: #febe10;
      }

      .cls-3 {
        fill: #ffcf01;
      }

      .cls-4 {
        fill: #ab8105;
      }

      .cls-5 {
        fill: #dba510;
      }

      .cls-6 {
        fill: #c28710;
      }
    </style>
  </defs>
  <title>profile</title>
  <g id="Layer_2" data-name="Layer 2">
    <g id="Layer_1-2" data-name="Layer 1">
      <g id="Layer_13" data-name="Layer 13">
        <g>
          <g class="cls-1">
            <path class="cls-2" d="M279.2,389.8c-11.5-48.5-67.3-91-67.3-91l39.6-59.3c43,34,105.8,33.1,105.8,33.1L460.4,418.7,348.3,344a10.5,10.5,0,1,0-10.2,10.8,13,13,0,0,0,3.9-.9l111.8,74.6Z"/>
            <rect class="cls-2" x="-36.3" y="156.4" width="288.3" height="66.9" transform="translate(-110 174.2) rotate(-56.3)"/>
            <rect class="cls-2" x="115.2" y="226" width="110.6" height="25.66" transform="translate(-122.8 248.1) rotate(-56.3)"/>
            <rect class="cls-2" x="160.1" y="246.9" width="82.7" height="19.19" transform="matrix(0.55, -0.83, 0.83, 0.55, -123.75, 281.74)"/>
          </g>
          <path class="cls-2" d="M279.1,338.6c-11.3-48.5-67.1-91.2-67.1-91.2l39.7-59.2c42.9,34.1,105.8,33.3,105.8,33.3L460.3,367.8,348.4,292.9a10.4,10.4,0,1,0-6.4,9.9l111.8,74.8Z"/>
          <rect class="cls-2" x="-36" y="104.9" width="288.3" height="66.9" transform="translate(-67 151.3) rotate(-56.2)"/>
          <polygon class="cls-3" points="55.7 276.8 60.1 300.4 5.8 262.5 0.1 239.6 55.7 276.8"/>
          <polygon class="cls-4" points="216.1 37.2 210.9 68.2 60.1 300.4 55.7 276.8 216.1 37.2"/>
          <rect class="cls-2" x="115.4" y="174.6" width="110.6" height="25.66" transform="translate(-80 225) rotate(-56.2)"/>
          <polygon class="cls-3" points="150.6 240.5 152.3 249.6 131.4 235 129.3 226.2 150.6 240.5"/>
          <polygon class="cls-4" points="212.1 148.6 210.1 160.5 152.3 249.6 150.6 240.5 212.1 148.6"/>
          <rect class="cls-2" x="160.3" y="195.6" width="82.7" height="19.19" transform="translate(-81 258.6) rotate(-56.2)"/>
          <polygon class="cls-3" points="186.6 244.8 187.8 251.6 172.3 240.7 170.7 234.2 186.6 244.8"/>
          <polygon class="cls-4" points="232.6 176.1 231.1 185 187.8 251.6 186.6 244.8 232.6 176.1"/>
          <polygon class="cls-5" points="279.1 338.6 275.2 358.9 453.8 377.6 279.1 338.6"/>
          <path class="cls-3" d="M275.2,358.9s-29.9-70.8-61.7-81.7L212,247.4s57.2,44.6,67.1,91.2Z"/>
          <polygon class="cls-6" points="460.3 367.8 348.4 292.9 344.1 301.9 460.3 367.8"/>
          <path class="cls-4" d="M344.1,301.9s-4.7-21-16.8-8c0,0-.9-7.1,5.6-10.1,13.8-6.3,15.5,9.1,15.5,9.1"/>
        </g>
      </g>
    </g>
  </g>
</svg>
